<?xml version="1.0" encoding="utf-8"?>
<!-- Generator: Adobe Illustrator 26.0.1, SVG Export Plug-In . SVG Version: 6.00 Build 0)  -->
<svg version="1.1" id="Layer_1" xmlns="http://www.w3.org/2000/svg" xmlns:xlink="http://www.w3.org/1999/xlink" x="0px" y="0px"
	 viewBox="0 0 419 605" style="enable-background:new 0 0 419 605;" xml:space="preserve">
<style type="text/css">
	.st0{fill:#166FB7;}
	.st1{fill:#1870B7;}
	.st2{fill:#A6E0FA;}
	.st3{fill:#F0CAD3;}
	.st4{fill:#F1CCD4;}
	.st5{fill:#215D95;}
	.st6{fill:#0F4E9F;}
	.st7{fill:#0F50A2;}
	.st8{fill:#144CAA;}
	.st9{fill:#CCEFFA;}
	.st10{fill:#1148A7;}
	.st11{fill:#0A469A;}
	.st12{fill:#EFE0DB;}
	.st13{fill:#EEE2DE;}
	.st14{fill:#03509B;}
</style>
<path class="st0" d="M344.5,308.4c0.5,0.3,1.2,0.6,1.6,1c4.6,5.3,9.3,10.7,13.9,16.1c-0.2,0.4-0.4,0.9-0.7,1.1
	c-4.9,3.6-9.8,7.2-14.8,10.7c-0.4-0.8-0.8-0.3-1.3-0.1c-5.6,3.3-11.2,6.7-17,9.7c-6.1,3.1-12.6,5.5-19.1,7.7
	c-7.3,2.5-14.7,4.3-22.3,5.8c-4.6,0.9-9.4,1.1-14.1,1.8c-5.1,0.9-10.2,0.6-15.3,1c-4.7,0.3-9.5-0.2-14.3-0.5
	c-1.6-0.1-3.1-0.3-4.7-0.5c-1.7-0.2-3.3-0.3-5-0.6c-4-0.6-8.1-0.9-12.1-1.8c-6.5-1.5-12.9-3.4-19.3-5c-1.1-0.3-2.2-0.3-3.3-0.5
	c-1.7-1.9-3.9-2.1-6.2-2.2c-0.5-1.6-1.7-1.1-2.8-1.2c-0.5-1.5-1.7-1.1-2.8-1.1c-1-1.8-2.9-1.7-4.5-2.3c-0.6-0.2-1.2-0.4-1.7-0.5
	c-0.7-1.4-1.9-1.8-3.4-1.7c-0.4-0.2-0.8-0.4-1.1-0.6c-0.4-0.2-0.8-0.4-1.1-0.6c-0.6-1.3-1.8-1.7-3.1-1.7c-2.5-1.4-5-2.6-7.5-3.8
	c-3-1.5-5.6-3.8-8.4-5.8c-2.7-1.9-5.8-3.3-7.7-6.2c-0.6-0.9-2-1.2-3-2c-2.6-2-5.2-4-7.7-6c-0.6-0.5-1-1.1-1.5-1.7
	c-2-2.3-3.8-4.8-6.1-6.9c-2.9-2.6-5.7-5.2-8.2-8.2c-4-4.7-7.7-9.6-11.1-14.7c-1.1-1.6-2.2-3.2-3.3-4.8c0.1-0.4,0.4-0.9,0.2-1
	c-0.4-0.5-0.9-0.8-1.4-1.2c0-0.8,0.3-1.8-1.1-1.7c0.1-1.8-1-2.9-2.2-4c0.2-1.4-0.5-2.3-1.7-2.8c-0.2-0.4-0.4-0.8-0.6-1.1
	c-0.2-0.7-0.2-1.5-0.5-2.1c-1.5-3-3-6-4.5-8.9c-0.3-0.5-0.8-0.9-1.2-1.4c0.1-1.6-0.1-3.1-1.7-4c-0.3-1.3-0.5-2.7-0.9-4
	c-1.1-3.3-2.6-6.6-3.6-9.9c-2.2-7.2-4.1-14.6-5.2-22.1c-0.6-4.6-1.7-9.1-2.2-13.7c-0.5-4.3-0.5-8.6-0.6-12.9c-0.1-5.3,0-10.5,0-15.8
	c0-0.7,0-1.3,0.1-2c0.3-2.8,0.7-5.7,1.1-8.5c0.3-2.6,0.8-5.1,1.1-7.7c0.3-2.1,0.4-4.2,0.6-6.4c0.1-1,0.2-2,0.4-3
	c0.8-3.3,1.5-6.5,2.4-9.8c1.2-4.3,2.5-8.6,4-12.8c1-2.9,2.2-5.8,3.5-8.5c1.7-3.6,3.7-7.1,5.4-10.8c0.7-1.5,2.2-2.9,1.8-4.8
	c1.5-2.5,3-5,4.8-7.3c3.2-4.2,5.9-8.8,8.9-13.2c1.9-2.8,3.8-5.7,5.8-8.4c1-1.3,2.3-2.4,3.4-3.7c1.8-2.1,3.3-4.4,5.2-6.2
	c4.1-4,8.4-7.7,12.6-11.6c0.8-0.8,1.7-1.5,2.5-2.3c1.9,1.9,3.9,3.8,5.7,5.8c3.4,3.7,6.8,7.5,10.2,11.3c-0.6,0.6-1.2,1.2-1.8,1.7
	c-3,2.6-6.5,4.5-9,7.5c-2,2.4-4,4.7-5.9,7.1c-3.2,4-6.2,8-9.4,12c-0.4,0.3-0.9,0.5-1.1,0.8c-2.1,3.1-4.2,6.3-6.3,9.4
	c-0.4,0.6-0.4,1.4-0.7,2.1l0,0c-0.4,0.7-0.8,1.5-1.2,2.2l0,0c-0.5,0.5-1,1-1.4,1.6c-1.1,1.9-2.2,3.9-3.3,5.9c-0.9,0-0.9,0.5-0.8,1.2
	c0,0,0,0,0,0c-0.2,0.4-0.4,0.8-0.6,1.1c0,0,0,0,0,0c-0.2,0.4-0.4,0.8-0.6,1.2l0,0c-0.2,0.4-0.4,0.8-0.6,1.2c0,0,0,0,0,0
	c-0.2,0.4-0.4,0.8-0.6,1.1l0,0c-1.3,0.2-1.2,1.2-1.2,2.2c-0.2,0.6-0.4,1.1-0.5,1.7c-1.5,0.5-1.1,1.7-1.1,2.8
	c-0.2,0.4-0.4,0.7-0.6,1.1c-0.2,0.6-0.4,1.1-0.6,1.7c-1.8,1.7-2.1,3.9-2.3,6.2c-0.4,0.5-0.9,1-1,1.6c-0.6,2-1.3,4.1-1.7,6.1
	c-0.6,3.4-2,6.8-1.8,10.4c-0.1,0.1-0.4,0.2-0.4,0.3c-1.8,7-2.4,14.2-2.9,21.4c-0.4,6-0.1,12-0.1,18.1c0,0.5,0,0.9,0,1.4
	c0.4,3,0.7,6.1,1.1,9.1c0.2,2.1,0.2,4.3,0.7,6.4c1,5,2.1,9.9,3.3,14.8c0.7,2.6,0.9,5.5,2.8,7.7c0.2,0.6,0.4,1.1,0.6,1.7
	c0.2,2.3,0.4,4.5,2.3,6.2c0.2,0.6,0.4,1.1,0.6,1.7c0.2,0.4,0.4,0.7,0.6,1.1c0.2,0.4,0.4,0.8,0.6,1.1c0.1,1.3-0.1,2.8,1.6,3.4
	c2,4.1,3.9,8.3,6,12.3c0.8,1.5,2,2.8,3.1,4.1l0,0c0.9,1.5,1.9,3,2.8,4.6l0,0c0.4,0.6,0.8,1.1,1.2,1.7l0,0c0.3,0.4,0.7,0.8,1,1.2l0,0
	c0.4,0.6,0.7,1.1,1.1,1.7l0,0c0.2,0.4,0.4,0.7,0.6,1.1l0,0c0.4,0.4,0.7,0.8,1.1,1.2l0,0c0.2,0.4,0.4,0.7,0.6,1.1l0,0
	c0.2,0.2,0.4,0.4,0.6,0.6l0,0c0.2,0.4,0.4,0.7,0.7,1.1c0.2,0.2,0.3,0.4,0.5,0.5c0.2,0.2,0.4,0.4,0.6,0.6l0,0
	c0.4,0.6,0.8,1.1,1.2,1.7l0,0c0.2,0.2,0.4,0.4,0.6,0.6c0,0,0,0,0,0c0.2,0.2,0.4,0.4,0.6,0.6c0,0,0,0,0,0c0.2,0.2,0.4,0.4,0.6,0.6
	l0,0c0.2,0.2,0.4,0.4,0.6,0.5l0,0c0.2,0.4,0.4,0.7,0.7,1.1l0,0c0.6,0.7,1.2,1.4,1.7,2c4,4.2,8,8.4,12,12.6c0.2,1.2,1.3,0.9,2.1,1.2
	l0,0c0.2,0.2,0.4,0.4,0.6,0.6l0,0c0.2,0.2,0.4,0.4,0.6,0.6l0,0c0.2,0.2,0.4,0.4,0.6,0.6l0,0c0.4,0.2,0.7,0.4,1.1,0.7l0,0
	c0.4,0.4,0.8,0.7,1.2,1.1l0,0c0.4,0.2,0.7,0.4,1.1,0.6l0,0c0.2,0.2,0.4,0.4,0.6,0.6l0,0c0.4,0.4,0.8,0.7,1.2,1.1
	c0.2,0.2,0.4,0.3,0.6,0.5c0.4,0.2,0.7,0.4,1.1,0.7l0,0c0.2,0.2,0.4,0.4,0.6,0.6l0,0c0.4,0.2,0.7,0.4,1.1,0.6c0,0,0,0,0,0
	c0.2,0.2,0.4,0.4,0.6,0.6c0,0,0,0,0,0c0.2,0.2,0.4,0.4,0.6,0.6c0,0,0,0,0,0c0.8,0.6,1.5,1.1,2.3,1.7l0,0c0.4,0.2,0.7,0.4,1.1,0.6
	l0,0c0.2,0.2,0.4,0.4,0.6,0.6l0,0c0.4,0.2,0.7,0.4,1.1,0.6l0,0c0.2,0.2,0.4,0.4,0.6,0.5l0,0c0.4,0.2,0.7,0.4,1.1,0.7l0,0
	c0.8,0.5,1.6,1.1,2.3,1.6l0,0c0.4,0.2,0.8,0.4,1.1,0.6l0,0c0.2,0.2,0.4,0.4,0.6,0.5l0,0c4,3.5,8.7,5.9,13.6,7.9
	c0.9,1.6,2.5,1.4,4,1.7c0.4,0.2,0.8,0.4,1.1,0.6c0.4,1.1,1.3,1.2,2.2,1.1c0.9,1.2,2.1,1.2,3.4,1.1c0.4,0.2,0.7,0.4,1.1,0.6
	c0.6,0.2,1.1,0.4,1.7,0.6c0.5,1.1,1.5,0.4,2.3,0.5c0.4,0.2,0.7,0.4,1.1,0.6c0.8,0.2,1.5,0.4,2.3,0.5c0.7,0.4,1.4,0.9,2.1,1.1
	c2.4,0.7,4.7,1.5,7.1,2c3.7,0.8,7.3,2,11.1,1.9c0.1,0.1,0.2,0.4,0.3,0.4c2.5,0.3,5.1,0.5,7.6,0.7c0,0,0.3,0,0.3,0l0.3,0
	c0.4,0.2,0.8,0.5,1.1,0.5c1.7,0.1,3.4,0,5.1,0c0.2,0,0.4,0,0.6,0c0.6,0.2,1.1,0.6,1.7,0.5c6.1-0.2,12.2,0.4,18.3-0.4
	c3.7-0.5,7.4-0.5,11.1-1.2c4.4-0.9,8.9-1.4,13.3-2.4c1.4-0.3,3.2-0.1,4.3-1.6c1.4,0,2.9,0.3,4-1.1c0.8-0.2,1.7,0.5,2.3-0.6
	c1.9,0.1,3.6-0.4,5.1-1.7c0.4-0.2,0.7-0.4,1.1-0.6c1.1,0,2.3,0.4,2.8-1.1c1.4-0.3,3.1,0,4-1.7c2.7-0.4,5.1-1.6,7.3-3.1
	c0.1,0,0.1-0.2,0.1-0.3c1.1,0,2.2,0,2.2-1.5c2.8-1,5.5-2.2,7.4-4.7l0,0c0.2-0.2,0.4-0.4,0.6-0.5l0,0c0.4-0.2,0.7-0.4,1.1-0.6l0,0
	c0.2-0.2,0.4-0.4,0.6-0.5c0,0,0,0,0,0c0.4-0.2,0.7-0.4,1.1-0.6l0,0c0.4-0.3,0.8-0.7,1.2-1l0,0c0.6-0.4,1.1-0.7,1.7-1.1l0,0
	c0.4-0.2,0.7-0.4,1.1-0.6c0,0,0,0,0,0c0.2-0.2,0.4-0.4,0.6-0.6c0,0,0,0,0,0c0.2-0.2,0.4-0.4,0.6-0.6c0,0,0,0,0,0
	c1-0.2,1.9-0.6,2.3-1.7l0,0c0.4-0.2,0.7-0.4,1.1-0.7l0,0c0.4-0.4,0.8-0.7,1.2-1.1c0,0,0,0,0,0c0.2-0.2,0.4-0.4,0.6-0.6c0,0,0,0,0,0
	l0.2,0l0.2-0.1C343.7,309.3,344.1,308.8,344.5,308.4z"/>
<path class="st1" d="M148.9,581.7c-0.7,0-1.4,0-2.3,0c28.6-56.9,57.1-113.5,85.7-170.3c6.7,13.5,13.3,26.8,19.9,40.1
	c10.1,20.4,20.2,40.8,30.2,61.2c9.8,20,19.6,40,29.4,60.1c1.4,2.8,2.6,5.6,3.9,8.4c-1,0-2.1,0.1-3.1,0.1c-32.2,0-64.4,0-96.5,0
	c-21.5,0-42.9,0-64.4,0C150.8,581.2,149.8,581.5,148.9,581.7z M171.5,566.7c0.2,0.3,0.3,0.8,0.5,0.8c0.7,0.1,1.5,0.1,2.2,0.1
	c38.3,0,76.6,0,114.9,0c0.8,0,1.7,0.1,2.5-0.1c0.3-0.1,0.5-0.8,0.7-1.2c-0.5-0.9-1.1-1.7-1.6-2.6c-3.6-7-7.1-14-10.7-21
	c-6.4-12.4-12.7-24.9-19.1-37.3c-6.5-12.6-13-25.1-19.5-37.7c-3.3-6.4-6.6-12.8-9.9-19.5c-20.4,39.5-40.8,78.8-61.2,118.1
	C170.8,566.5,171.1,566.6,171.5,566.7z"/>
<path class="st2" d="M141.5,48.9c-0.8,0.8-1.7,1.5-2.5,2.3c-4.2,3.9-8.5,7.6-12.6,11.6c-1.9,1.9-3.4,4.2-5.2,6.2
	c-1.1,1.3-2.4,2.3-3.4,3.7c-2,2.7-3.9,5.6-5.8,8.4c-3,4.4-5.7,9-8.9,13.2c-1.8,2.4-3.3,4.8-4.8,7.3c-1.2-0.1-1.2,1-1.6,1.7
	c-2.3,4.8-4.7,9.5-6.8,14.4c-1.6,3.5-3.1,7.1-4.3,10.8c-1.7,5.3-3.3,10.8-4.6,16.2c-0.9,3.5-2.1,6.9-1.8,10.6l0,0
	c-0.2,0.1-0.3,0.1-0.5,0.2c0.1,0.1,0.2,0.2,0.3,0.3c-0.1,1.3-0.3,2.5-0.4,3.8c-0.2,2.1-0.4,4.2-0.7,6.3c-0.4,3.1-1,6.2-1.1,9.3
	c-0.2,6.8-0.1,13.7-0.1,20.5c0,0.7-0.1,1.4,0.1,2c1.1,3.6,0.3,7.4,1.1,11c0.5,1.9,0.5,4,0.8,6c0.3,2.1,0.6,4.1,0.9,6.2
	c-0.2,0.3-0.5,0.6-0.5,0.8c0.9,3.8,1.7,7.7,2.7,11.5c0.8,3.2,1.8,6.4,2.8,9.5c0.2,0.5,0.8,0.9,1.2,1.3l0,0c0.1,0.6-0.5,1.5,0.6,1.7
	l0,0c0.1,0.8,0.1,1.7,0.3,2.4c1,3,1.9,6,3.1,8.9c0.4,1.1,1.5,1.9,2.2,2.8l0,0c0.2,0.4,0.4,0.8,0.6,1.1l0,0c0.2,0.4,0.4,0.8,0.6,1.1
	c0,0,0,0,0,0c0.2,0.4,0.4,0.8,0.6,1.2l0,0c0.2,0.4,0.4,0.8,0.6,1.1c0,0,0,0,0,0c0.2,0.4,0.4,0.8,0.6,1.1c0,0,0,0,0,0
	c0.2,0.4,0.4,0.8,0.6,1.2l0,0c0.2,0.4,0.4,0.8,0.6,1.1l0,0c0.2,0.4,0.4,0.8,0.6,1.1l0,0c0.2,0.4,0.4,0.8,0.6,1.1l0,0
	c-0.1,1.4,0,2.6,1.7,2.8l0,0c0.2,0.4,0.4,0.8,0.6,1.1l0,0c0,1.3,0.4,2.4,1.7,2.9l0,0c0.2,0.4,0.4,0.8,0.6,1.1l0,0
	c0.2,0.2,0.4,0.4,0.6,0.6l0,0c0.2,0.4,0.4,0.8,0.6,1.1l0,0c-0.2,0.9,0.2,1.5,1.1,1.7l0,0c-0.1,0.6,0,1.2,0.8,1.1l0.1,0l0.1,0
	c1.1,1.6,2.3,3.2,3.3,4.8c3.5,5.1,7.1,10.1,11.1,14.7c2.6,3,5.3,5.6,8.2,8.2c2.3,2,4.1,4.6,6.1,6.9c0.5,0.6,0.9,1.2,1.5,1.7
	c2.5,2,5.1,4,7.7,6c1,0.7,2.4,1.1,3,2c2,2.9,5,4.3,7.7,6.2c2.8,2,5.4,4.3,8.4,5.8c2.5,1.2,5,2.5,7.5,3.8c0.7,0.5,1.4,1,2.1,1.5
	c0.6,2,2.2,2.3,4,2.3l0,0c0.4,0.2,0.8,0.4,1.1,0.6l0,0c1.6,2.1,3.8,2.7,6.2,2.9l0,0c0.4,1.7,1.7,1.2,2.8,1.2l0,0
	c0.4,1.7,1.7,1.2,2.9,1.2l0,0c0.4,1.7,1.7,1.2,2.8,1.2l0,0c0.5,0.4,1,1,1.6,1.2c6,1.9,12,3.9,18,5.5c2.2,0.6,4.4,1.2,6.6,1.8
	c2.3,0.6,4.7,1,7.1,1.1c1.7,0,3.2,0.9,4.8,1.1c2.1,0.2,4.2,0.1,6.3,0.2c4.1,0.3,8.1,1,12.2,1c5.1,0,10.3,0.5,15.4-0.4
	c2.7-0.5,5.6-0.3,8.3-0.6c4.4-0.5,8.9-0.9,13.2-1.8c7.5-1.5,15-3.2,22.2-5.9c1.5-0.6,3-1.3,4.5-1.9c7.1-2.8,14.2-5.6,20.7-9.6
	c2.7-1.6,5.5-3,8.1-4.7c1.2-0.8,2.3-1.9,3.4-2.8c4.9-3.6,9.9-7.1,14.8-10.7c0.3-0.2,0.5-0.8,0.7-1.1c0.6,0.6,1.3,1.2,1.9,1.9
	c2,2.2,3.9,4.5,6.1,7c-1.5,1.3-2.8,2.7-4.4,3.8c-5,3.7-10,7.4-15.3,10.8c-8.5,5.5-17.3,10.2-26.7,14c-7.1,2.9-14.3,5.5-21.8,7.4
	c-5.4,1.3-10.8,2.7-16.2,3.7c-3.7,0.7-7.6,0.7-11.4,1.2c-8.2,1.3-16.4,1.2-24.7,1c-4.2-0.1-8.3-0.7-12.5-1.1
	c-3.8-0.4-7.6-0.6-11.4-1.2c-4.5-0.8-9.1-1.8-13.5-2.9c-7.7-1.9-15.3-4.4-22.8-7.1c-5.6-2-11-4.5-16.3-7.2
	c-7.6-3.7-14.7-8-21.6-12.7c-5.4-3.7-10.4-7.8-15.6-11.8c-6.7-5.1-12.5-11.1-18.2-17.2c-4.7-5.1-9.1-10.6-13.2-16.3
	c-4.2-5.7-8-11.6-11.7-17.7c-3.8-6.2-7.2-12.6-9.9-19.4c-2-5-4.1-10-5.8-15.1c-1.8-5.3-3.3-10.8-4.7-16.2c-0.9-3.7-1.2-7.5-1.9-11.2
	c-0.5-3.3-1.3-6.5-1.6-9.9c-0.4-3.9-0.4-7.8-0.6-11.8c-0.2-3-0.5-6-0.5-8.9c0.1-6,0-12,0.6-18c0.7-7.3,1.7-14.5,3.1-21.7
	c1.7-8.7,3.9-17.3,7-25.7c1.8-4.9,3.7-9.7,5.9-14.4c2.9-6.1,6-12,9.3-17.9c3.3-5.8,6.9-11.5,11.1-16.8c3.7-4.6,7.1-9.3,11-13.7
	c4.2-4.7,8.8-8.9,13.2-13.4c1.5-1.5,3.1-3.1,4.6-4.6c0.7-0.6,1.4-1.2,2.1-1.9c0.7,0.5,1.2,0.8,1.7,1.2c1.7,1.6,3.4,3.3,5,5
	C140.9,47.5,141.1,48.3,141.5,48.9z"/>
<path class="st3" d="M382.2,355.4c2,2.3,3.7,4.3,5.6,6.5c-1.5,1.3-2.9,2.5-4.4,3.6c-5.4,4-10.7,8-16.3,11.7
	c-3.9,2.6-8.1,4.9-12.2,7.2c-3.3,1.9-6.7,3.8-10.1,5.4c-10.7,5.1-21.7,9.6-33.2,12.6c-5.8,1.5-11.6,3.2-17.4,4.4
	c-5.2,1.1-10.6,1.6-15.9,2.4c-2.1,0.3-4.3,0.2-6.4,0.6c-3.9,0.7-7.8,0.4-11.8,0.6c-1.3,0-2.6,0.6-3.8,0.5c-5.3-0.7-10.7-0.2-16-0.6
	c-4.3-0.3-8.6-1.1-13-1.6c-2.9-0.4-5.9-0.7-8.8-1.2c-3.2-0.5-6.4-1-9.5-1.7c-6.7-1.6-13.5-3.1-20.1-5.1c-9.4-2.8-18.5-6.5-27.5-10.7
	c-9-4.2-17.7-9.1-26.1-14.4c-6.2-4-12.1-8.3-17.9-12.9c-4.9-3.9-9.7-8-14.1-12.4c-2.5-2.5-5.2-4.7-7.7-7.3c-2.6-2.7-5-5.6-7.4-8.4
	c-2.2-2.5-4.4-5.1-6.5-7.7c-4.7-5.6-9-11.6-13-17.8c-6.3-9.5-12-19.3-16.7-29.7c-2.7-5.8-5.2-11.7-7.3-17.8c-2.8-8-5.3-16-7.2-24.2
	c-1.3-5.6-2.7-11.1-3.3-16.8c-0.4-3.5-1.2-6.9-1.6-10.4c-0.4-3.1-0.5-6.3-0.6-9.5c-0.2-7.3-0.6-14.6-0.5-21.9c0-4.4,0.7-8.7,1-13.1
	c0.2-1.9,0.4-3.9,0.6-5.8c0.4-3,0.7-6.1,1.2-9.1c0.6-3.7,1.4-7.4,2.1-11.1c2-9.5,4.9-18.8,8.2-27.9c3.5-9.5,7.7-18.7,12.5-27.7
	c5.2-9.9,11.1-19.4,18-28.2c3-3.9,5.8-8,9-11.7c5.3-6.2,10.7-12.3,16.7-17.9c3.2-3,6.4-6,9.8-9.2c2,2.5,3.8,4.7,5.8,7.1
	c-1.6,1.4-3.1,2.8-4.6,4.1c-3.2,2.9-6.4,5.8-9.4,8.9C97,42.6,92.1,48.2,87.4,54c-7.5,9.2-13.8,19.2-19.8,29.4
	c-4.1,6.9-7.4,14.2-10.7,21.5c-3.1,7-5.6,14.1-8,21.3c-2.4,7.1-3.9,14.4-5.3,21.8c-0.9,5.1-1.4,10.3-2.3,15.4
	c-1.7,10.5-0.9,21-1,31.5c-0.1,3.9,0.1,7.9,0.6,11.8c0.7,4.8,0.8,9.6,2.1,14.3c0.9,3.5,1.2,7.1,1.8,10.7c0.4,2.3,1.1,4.5,1.7,6.7
	c1.6,5.6,3.1,11.2,4.9,16.7c1.7,4.9,3.7,9.7,5.8,14.5c2.2,5,4.6,10,7.2,14.9c2.6,4.9,5.3,9.6,8.2,14.3c3.5,5.5,7.2,10.9,10.9,16.2
	c1.7,2.4,3.5,4.8,5.4,7.1c3,3.6,5.9,7.2,9,10.7c2.7,3,5.7,5.8,8.6,8.6c4,4,8.5,7.6,12.8,11.3c6.9,5.7,14.1,11,21.6,15.8
	c8.1,5.2,16.4,9.9,25.2,13.9c7.7,3.5,15.5,6.6,23.6,9c8.1,2.4,16.3,4.7,24.7,6.1c3.9,0.7,7.8,1.5,11.7,2.2c2.3,0.4,4.6,0.4,6.9,0.6
	c4,0.4,8,0.7,11.9,1.1c0.7,0.1,1.3,0,2,0c4.1,0,8.3,0.1,12.4,0c4.3-0.2,8.5-0.7,12.8-1.1c2-0.2,4.1-0.3,6.1-0.6
	c4.7-0.7,9.3-1.4,14-2.2c10.2-1.6,20-4.6,29.7-8c5-1.8,9.8-3.9,14.7-6c3-1.3,6-2.6,8.8-4.1c9.2-4.8,18.2-10.2,26.5-16.5
	C375.3,360.3,378.7,357.9,382.2,355.4z"/>
<path class="st4" d="M151.8,301.8c-4-4.2-8-8.4-12-12.6c0.1-1.3-0.2-2.2-1.7-2l0,0c0-0.5,0.2-1.1-0.7-1.1l0,0
	c-0.2-0.2-0.4-0.4-0.6-0.5l0,0c-0.2-0.2-0.4-0.4-0.6-0.6c0,0,0,0,0,0c-0.2-0.2-0.4-0.4-0.6-0.6c0,0,0,0,0,0
	c-0.2-0.2-0.4-0.4-0.6-0.6l0,0c0.1-0.9-0.2-1.5-1.2-1.7l0,0c-0.2-0.2-0.4-0.4-0.6-0.6c-0.2-0.2-0.3-0.4-0.5-0.5
	c-0.2-0.4-0.4-0.7-0.7-1.1l0,0c-0.2-0.2-0.4-0.4-0.6-0.6c0,0,0,0,0,0c0-0.5,0.2-1.1-0.6-1.1l0,0c-0.4-0.4-0.7-0.8-1.1-1.2l0,0
	c0-0.5,0.2-1.1-0.6-1.1l0,0c0.3-1-0.1-1.6-1.1-1.7l0,0c0.3-1-0.1-1.3-1-1.2l0,0c0.1-0.9-0.2-1.5-1.2-1.7l0,0c0-2.1-1.2-3.5-2.8-4.6
	l0,0c-0.2-0.7-0.3-1.4-0.7-2.1c-1.5-2.9-3.1-5.7-4.6-8.6c-0.9-1.8-1.7-3.7-2.6-5.5c-0.2-0.5-0.9-0.8-1.3-1.2l0.1-0.1
	c0-0.4,0.2-0.8,0-1.1c-1.1-3.2-2.3-6.3-3.5-9.5c-0.1-0.3-0.7-0.5-1.1-0.7l0,0c-0.3-1.3-0.4-2.7-0.8-4c-1.7-5.6-3.2-11.3-4.2-17.2
	c-0.7-4-1.6-8-1.8-12.1c-0.2-4.2-1-8.3-1-12.5c0-5.7-0.4-11.4,0.4-17.1c0.7-4.6,0.5-9.3,1.3-13.8c1-5.9,2.6-11.7,3.9-17.5
	c0.6-2.4,1.7-4.7,1.5-7.3l0,0c1.6-1.2,1.6-3.2,2.3-4.8c0.6-1.3,1.6-2.6,1.1-4.2l0,0c1.8-0.8,1.5-2.5,1.7-4l0,0
	c0.6-0.6,1.3-1.2,1.7-1.9c2-3.6,3.9-7.3,5.7-11c0.3-0.5,0.3-1.2,0.4-1.8l0,0c0.9-0.5,1.3-1.2,1.2-2.2l0,0c0.6-0.5,1.3-0.8,1.7-1.4
	c2.3-3.3,4.5-6.7,6.8-10.1c0.1-0.1-0.2-0.6-0.4-0.8c3.1-4,6.2-8,9.4-12c1.9-2.4,4-4.7,5.9-7.1c2.6-3,6.1-5,9-7.5
	c0.6-0.5,1.2-1.1,1.8-1.7c2,2.6,4.1,5.3,6.2,8c-0.7,0.7-1.3,1.4-2,2c-3.9,3.8-8.1,7.3-11.8,11.3c-7,7.7-13.4,16-18.6,25.1
	c-2.7,4.8-5.5,9.5-7.8,14.5c-3.9,8.6-7.2,17.4-9.1,26.7c-0.9,4.5-1.7,9.1-2.4,13.6c-1.5,9.8-1.2,19.7-0.8,29.5
	c0.2,6.3,0.7,12.7,2.5,19c1.5,5,2.2,10.3,3.6,15.3c0.9,3.3,2.3,6.5,3.6,9.6c4,9.4,8.4,18.6,14.4,27c3,4.2,6,8.3,9.4,12.1
	c4.3,4.9,8.8,9.6,13.5,14c4.5,4.3,9.5,8,14.7,11.5c6.3,4.3,12.7,8.4,19.7,11.7c9.4,4.4,19.2,7.9,29.3,10.3c5,1.1,10.2,1.8,15.3,2.5
	c7.7,1,15.3,1.3,23,0.9c4.6-0.2,9.2-0.6,13.8-1.4c4.5-0.7,9-1.5,13.3-2.6c6.3-1.6,12.4-3.8,18.5-5.9c6.2-2.2,12-5.1,17.5-8.5
	c4.7-2.9,9.1-6.1,13.7-9.1c0.8-0.6,1.7-1.1,2.5-1.7c1.5,1.8,3.1,3.5,4.5,5.4c0.4,0.5,0.4,1.2,0.6,1.8c-0.4,0.4-0.8,0.9-1.1,1.3
	c-0.1-0.1-0.2-0.2-0.2-0.4c-0.1,0.2-0.1,0.3-0.2,0.5c0,0,0,0,0,0c-0.2,0.2-0.4,0.4-0.6,0.6c0,0,0,0,0,0c-0.9-0.2-1.3,0.2-1.2,1.1
	l0,0c-0.5,0-1.1-0.2-1.1,0.7l0,0c-1.4-0.3-1.9,0.6-2.3,1.7c0,0,0,0,0,0c-0.2,0.2-0.4,0.4-0.6,0.6c0,0,0,0,0,0
	c-0.2,0.2-0.4,0.4-0.6,0.6c0,0,0,0,0,0c-0.5,0-1.1-0.2-1.1,0.6l0,0c-1-0.3-1.6,0.1-1.7,1.1l0,0c-1-0.3-1.3,0.1-1.2,1l0,0
	c-0.4,0.2-0.7,0.4-1.1,0.6c0,0,0,0,0,0c-0.2,0.2-0.4,0.4-0.6,0.5l0,0c-0.4,0.2-0.7,0.4-1.1,0.6l0,0c-0.2,0.2-0.4,0.4-0.6,0.5l0,0
	c-1.7,0.8-3.4,1.4-4.9,2.4c-1,0.6-2.7,0.6-2.9,2.2l0-0.1c-0.5-0.1-1.1-0.2-1.1,0.6l0,0c-1-0.2-2-0.3-2.3,1.2l0,0
	c-0.5-0.1-1.1-0.2-1.1,0.6l0,0c-0.5-0.1-1.1-0.2-1.2,0.6l0,0c-0.4,0.2-0.8,0.4-1.2,0.6l0,0c-0.4,0.2-0.8,0.4-1.2,0.6l0,0
	c-1.2-0.2-2.2,0.1-2.8,1.2l0,0c-0.6,0.1-1.3,0.1-1.9,0.3c-2.1,0.7-4.2,1.6-6.3,2.3c-5.7,1.9-11.4,3.6-17.3,4.8
	c-3.4,0.7-6.8,1.1-10.1,1.8c-4.6,0.9-9.2,1.2-13.8,1.4c-6.2,0.3-12.5,0.7-18.8-0.4c-3.7-0.6-7.6-0.7-11.3-1.2
	c-3.8-0.5-7.7-1.2-11.4-2.1c-5.7-1.5-11.3-3.4-17-5c-1.2-0.4-2.5-0.4-3.8-0.7l0,0c-0.4-1.7-1.7-1.2-2.9-1.1l0,0
	c-1.1-1.2-2.3-1.9-4-1.7c0,0,0,0,0,0c-0.4-0.2-0.8-0.4-1.2-0.6c0,0-0.1,0.1-0.1,0.1c-0.7-1.7-2.5-1.7-3.8-2.4
	c-3.2-1.8-6.3-3.5-9.5-5.2c-0.5-0.3-1.2-0.3-1.8-0.4l0,0c-0.2-0.2-0.4-0.4-0.6-0.5l0,0c-0.4-0.2-0.8-0.4-1.1-0.6l0,0
	c-0.5-1-0.9-2-2.3-1.6l0,0c-0.4-0.2-0.7-0.4-1.1-0.7l0,0c-0.2-0.2-0.4-0.4-0.6-0.5l0,0c-0.4-0.2-0.7-0.4-1.1-0.6c0,0,0,0,0,0
	c-0.2-0.2-0.4-0.4-0.6-0.6l0,0c-0.4-0.2-0.7-0.4-1.1-0.6l0,0c0-1.7-1-1.9-2.3-1.7c0,0,0,0,0,0c-0.2-0.2-0.4-0.4-0.6-0.6l0,0
	c-0.2-0.2-0.4-0.4-0.6-0.6l0,0c0-0.8-0.6-0.7-1.1-0.6l0,0c-0.2-0.2-0.4-0.4-0.6-0.6l0,0c-0.4-0.2-0.7-0.4-1.1-0.7
	c-0.2-0.2-0.4-0.3-0.6-0.5c0.1-0.9-0.2-1.4-1.2-1.1l0,0c-0.2-0.2-0.4-0.4-0.6-0.6l0,0c0-0.9-0.6-0.7-1.1-0.6l0,0
	c0.1-0.9-0.2-1.3-1.2-1.1l0,0c-0.4-0.2-0.7-0.4-1.1-0.7l0,0c-0.2-0.2-0.4-0.4-0.6-0.6l0,0c-0.2-0.2-0.4-0.4-0.6-0.6l0,0
	c-0.2-0.2-0.4-0.4-0.6-0.6c0,0,0,0,0,0C153.7,301.8,152.8,301.7,151.8,301.8z"/>
<path class="st5" d="M148.9,581.7c1-0.2,1.9-0.5,2.9-0.5c21.5,0,42.9,0,64.4,0c32.2,0,64.4,0,96.5,0c1,0,2.1-0.1,3.1-0.1l0,0
	c-0.1,0.2-0.1,0.3-0.1,0.5c-1.7,0-3.4,0.1-5.1,0.1c-53.1,0-106.1,0-159.2,0C150.6,581.8,149.7,581.7,148.9,581.7z"/>
<path class="st1" d="M315.7,581.6c0-0.2,0-0.3,0.1-0.5c0.1,0.1,0.2,0.2,0.4,0.3C316,581.5,315.8,581.6,315.7,581.6z"/>
<path class="st6" d="M344.5,337.4c-1.1,0.9-2.2,2-3.4,2.8c-2.7,1.6-5.5,3-8.1,4.7c-6.5,4-13.6,6.9-20.7,9.6
	c-0.8,0.1-1.7,0.1-2.4,0.3c-5.8,1.6-11.5,3.5-17.3,5c-8.7,2.2-17.7,3.6-26.7,4.1c-7.8,0.4-15.6,0.2-23.4,0.1c-2.8,0-5.6-0.6-8.3-0.9
	c0.8-0.2,1.6-0.4,2.4-0.6c1.6,0.2,3.1,0.5,4.7,0.5c4.8,0.2,9.6,0.8,14.3,0.5c5.1-0.3,10.2-0.1,15.3-1c4.7-0.8,9.4-0.9,14.1-1.8
	c7.5-1.5,15-3.2,22.3-5.8c6.5-2.3,13-4.6,19.1-7.7c5.8-3,11.3-6.4,17-9.7C343.7,337,344.1,336.5,344.5,337.4z"/>
<path class="st7" d="M79.9,220.9c-0.3-2.1-0.6-4.1-0.9-6.2c-0.3-2-0.3-4-0.8-6c-0.9-3.6,0-7.4-1.1-11c-0.2-0.6-0.1-1.3-0.1-2
	c0-6.8-0.1-13.7,0.1-20.5c0.1-3.1,0.7-6.2,1.1-9.3c0.2-2.1,0.4-4.2,0.7-6.3c0.1-1.3,0.3-2.5,0.4-3.8c0-0.2,0.1-0.3,0.1-0.5l0,0
	c0.2-0.5,0.4-0.9,0.6-1.4c0.4-0.9,0.7-1.8,1.1-2.7c-0.2,2.1-0.4,4.3-0.6,6.4c-0.3,2.6-0.7,5.1-1.1,7.7c-0.4,2.8-0.7,5.7-1.1,8.5
	c-0.1,0.7-0.1,1.3-0.1,2c0,5.3-0.1,10.5,0,15.8c0.1,4.3,0.2,8.7,0.6,12.9c0.5,4.6,1.5,9.1,2.2,13.7c1,7.5,3,14.8,5.2,22.1
	c1,3.4,2.4,6.6,3.6,9.9c0.4,1.3,0.6,2.7,0.9,4l-0.1,0.1c-0.3-0.7-0.7-1.5-1-2.2c-0.9-2.1-1.8-4.3-2.7-6.5l0,0
	c-0.2-0.6-0.4-1.1-0.6-1.7c0,0,0,0,0,0c0-0.4-0.1-0.7-0.1-1.1c-1.5-5.8-3.1-11.6-4.7-17.4C80.9,224,80.4,222.4,79.9,220.9z"/>
<path class="st8" d="M108.1,235c-1.9-2.2-2.1-5.1-2.8-7.7c-1.3-4.9-2.3-9.9-3.3-14.8c-0.4-2.1-0.4-4.2-0.7-6.4
	c-0.3-3-0.7-6.1-1.1-9.1c-0.1-0.5,0-0.9,0-1.4c0-6-0.3-12.1,0.1-18.1c0.5-7.2,1.1-14.4,2.9-21.4c0-0.1,0.3-0.2,0.4-0.3c0,0,0,0,0,0
	c-0.2,1.4-0.3,2.8-0.6,4.1c-1.4,8.7-2,17.5-2.1,26.3c-0.1,5.5,0.6,11,0.9,16.6c0.4,6.9,1.7,13.7,3.4,20.4c1,3.9,2,7.8,3,11.6
	L108.1,235z"/>
<path class="st9" d="M81,151.3c-0.4,0.9-0.7,1.8-1.1,2.7c-0.2,0.5-0.4,0.9-0.6,1.4c-0.3-3.7,0.9-7.2,1.8-10.6
	c1.3-5.5,2.9-10.9,4.6-16.2c1.2-3.7,2.7-7.3,4.3-10.8c2.2-4.8,4.5-9.6,6.8-14.4c0.3-0.7,0.4-1.7,1.6-1.7c0.4,2-1.1,3.3-1.8,4.8
	c-1.7,3.6-3.7,7.1-5.4,10.8c-1.3,2.8-2.5,5.6-3.5,8.5c-1.4,4.2-2.7,8.5-4,12.8c-0.9,3.2-1.7,6.5-2.4,9.8
	C81.2,149.3,81.1,150.3,81,151.3z"/>
<path class="st10" d="M293,336.3c-1,1.5-2.8,1.3-4.3,1.6c-4.4,1-8.9,1.5-13.3,2.4c-3.7,0.7-7.4,0.7-11.1,1.2
	c-6.1,0.8-12.2,0.2-18.3,0.4c-0.6,0-1.1-0.3-1.7-0.5c0.4-0.1,0.8-0.2,1.1-0.4c3.4,0.1,6.7,0.3,10.1,0.2c2.3,0,4.7-0.3,7-0.4
	c6-0.2,11.9-1,17.8-2.1c4.2-0.8,8.4-1.7,12.6-2.6L293,336.3z"/>
<path class="st11" d="M236.5,362.3c-0.8,0.2-1.6,0.4-2.4,0.6c-12.8-1.2-25.2-4.1-37.3-8.4l0.1-0.1c1.1,0.2,2.2,0.2,3.3,0.5
	c6.4,1.7,12.8,3.5,19.3,5c4,0.9,8,1.2,12.1,1.8C233.2,362,234.8,362.1,236.5,362.3z"/>
<path class="st12" d="M114.2,249.3c0.4,0.4,1.1,0.7,1.3,1.2c0.9,1.8,1.7,3.7,2.6,5.5c1.5,2.9,3.1,5.7,4.6,8.6
	c0.3,0.6,0.5,1.4,0.7,2.1c-1-1.4-2.3-2.6-3.1-4.1c-2.1-4.1-4-8.2-6-12.3C114.2,250,114.2,249.7,114.2,249.3z"/>
<path class="st13" d="M175.9,319.3c0.6,0.1,1.3,0.1,1.8,0.4c3.2,1.7,6.4,3.5,9.5,5.2c1.3,0.7,3.1,0.7,3.8,2.4c-0.5,0-1-0.1-1.5-0.1
	C184.7,325.2,180,322.8,175.9,319.3z"/>
<path class="st8" d="M229.1,339.7c-3.8,0-7.4-1.2-11.1-1.9c-2.4-0.5-4.8-1.3-7.1-2c-0.7-0.2-1.4-0.7-2.1-1.1l0.1-0.2
	c0.6,0.1,1.3,0.2,1.9,0.4c6.2,2.1,12.5,3.4,18.9,4.4C229.5,339.4,229.3,339.5,229.1,339.7z"/>
<path class="st12" d="M131.4,94.2c0.1,0.3,0.5,0.7,0.4,0.8c-2.2,3.4-4.5,6.8-6.8,10.1c-0.4,0.6-1.1,0.9-1.7,1.4
	c0.2-0.7,0.3-1.5,0.7-2.1c2-3.2,4.1-6.3,6.3-9.4C130.5,94.7,131,94.5,131.4,94.2z"/>
<path class="st12" d="M122.1,108.8c-0.1,0.6-0.1,1.3-0.4,1.8c-1.9,3.7-3.8,7.4-5.7,11c-0.4,0.7-1.1,1.3-1.7,1.9
	c0.1-0.5,0.1-1,0.2-1.5l0,0c0.2-0.4,0.4-0.8,0.6-1.1l0,0c0.2-0.4,0.4-0.8,0.6-1.2l0,0c0.2-0.4,0.4-0.8,0.6-1.2c0,0,0,0,0,0
	c0.2-0.4,0.4-0.8,0.6-1.1c0,0,0,0,0,0c0.3-0.4,0.5-0.8,0.8-1.2c1.1-2,2.1-4,3.3-5.9C121.1,109.8,121.6,109.3,122.1,108.8z"/>
<path class="st8" d="M103.6,155.8c-0.1-3.6,1.2-6.9,1.8-10.4c0.4-2.1,1-4.1,1.7-6.1c0.2-0.6,0.7-1,1-1.6l0.2,0.1
	c-1.1,4.3-2.2,8.7-3.3,13C104.6,152.5,104.1,154.2,103.6,155.8L103.6,155.8z"/>
<path class="st7" d="M92.3,258.2c0.4,0.5,0.9,0.9,1.2,1.4c1.5,3,3,5.9,4.5,8.9c0.3,0.6,0.4,1.4,0.5,2.1l-0.2,0.1
	c-0.3-0.3-0.6-0.5-0.9-0.8l0,0c-0.2-0.4-0.4-0.8-0.6-1.1l0,0c-0.2-0.4-0.4-0.8-0.6-1.1l0,0c-0.2-0.4-0.4-0.8-0.6-1.1l0,0
	c-0.2-0.4-0.4-0.8-0.6-1.2l0,0c-0.2-0.4-0.4-0.8-0.6-1.1l0,0c-0.2-0.4-0.4-0.8-0.6-1.1l0,0c-0.2-0.4-0.4-0.8-0.6-1.2l0,0
	c-0.2-0.4-0.4-0.8-0.6-1.1l0,0c-0.2-0.4-0.4-0.8-0.6-1.1l0,0c-0.1-0.5-0.2-1-0.2-1.5L92.3,258.2z"/>
<path class="st13" d="M321.4,324.5c0.2-1.7,1.9-1.6,2.9-2.2c1.5-1,3.3-1.6,4.9-2.4c-1.9,2.4-4.6,3.6-7.4,4.7
	C321.7,324.5,321.6,324.5,321.4,324.5z"/>
<path class="st10" d="M319.6,326.1c0,0.1,0,0.2-0.1,0.3c-2.2,1.5-4.6,2.7-7.3,3.1l-0.1-0.1c0.4-0.3,0.9-0.7,1.3-1l0,0
	c0.4-0.2,0.8-0.4,1.2-0.6l0,0c0.4-0.2,0.8-0.4,1.2-0.6c0,0,0,0,0,0c0.4-0.2,0.8-0.4,1.2-0.6c0,0,0,0,0,0c0.4-0.2,0.8-0.4,1.1-0.6
	l0,0c0.5-0.1,1-0.2,1.5-0.3L319.6,326.1z"/>
<path class="st10" d="M229.1,339.7c0.2-0.1,0.4-0.3,0.6-0.4c2.4,0.4,4.9,0.7,7.3,1.1c0,0.2,0,0.3,0,0.5c-2.5-0.2-5.1-0.5-7.6-0.7
	C229.3,340.1,229.2,339.8,229.1,339.7z"/>
<path class="st8" d="M108.1,137.8c0.2-2.3,0.4-4.5,2.3-6.2l0.1,0.1c-0.4,1.6-0.9,3.3-1.3,4.9l0,0c-0.3,0.5-0.6,0.9-0.9,1.4
	L108.1,137.8z"/>
<path class="st8" d="M111,243c-1.8-1.7-2.1-3.9-2.3-6.2l0.2-0.1c0.3,0.4,0.6,0.9,0.9,1.3l0,0c0.5,1.6,0.9,3.3,1.4,4.9L111,243z"/>
<path class="st11" d="M190.7,352.2c2.3,0.1,4.6,0.4,6.2,2.2l-0.1,0.1c-1.6-0.5-3.3-0.9-4.9-1.4c0,0,0,0,0,0
	C191.5,352.9,191,352.6,190.7,352.2L190.7,352.2z"/>
<path class="st12" d="M123.3,266.8c1.7,1.1,2.9,2.4,2.8,4.6C125.2,269.8,124.3,268.3,123.3,266.8z"/>
<path class="st11" d="M180.5,347.6c1.6,0.6,3.5,0.5,4.5,2.3l-0.1,0.1c-0.5-0.1-1-0.2-1.5-0.2l0,0c-1.1-0.6-2.1-1.2-3.2-1.8
	C180.3,347.8,180.4,347.7,180.5,347.6z"/>
<path class="st10" d="M304.4,332.9c-1.5,1.3-3.2,1.8-5.1,1.7c-0.1-0.1-0.2-0.2-0.2-0.3c1.7-0.6,3.4-1.2,5-1.8
	C304.2,332.7,304.3,332.8,304.4,332.9z"/>
<path class="st10" d="M243.8,341.4c-1.7,0-3.4,0-5.1,0c-0.4,0-0.8-0.4-1.1-0.5c0-0.1,0-0.3,0-0.4c2.1,0.2,4.1,0.4,6.2,0.5
	C243.8,341.1,243.8,341.2,243.8,341.4z"/>
<path class="st7" d="M100.8,274.6c1.2,1,2.3,2.2,2.2,4l-0.1,0.1c-0.1-0.1-0.3-0.1-0.4-0.1l0,0c-0.2-0.2-0.4-0.4-0.6-0.6l0,0
	c-0.2-0.4-0.4-0.8-0.6-1.1l0,0c-0.3-0.7-0.6-1.4-0.8-2.1L100.8,274.6z"/>
<path class="st7" d="M90.6,254.3c1.6,0.9,1.8,2.4,1.7,4c0,0-0.1,0.1-0.1,0.1c-0.6-1.3-1.1-2.6-1.7-4L90.6,254.3z"/>
<path class="st8" d="M189.6,327.2c0.5,0,1,0.1,1.5,0.1l0.1-0.1c0.4,0.2,0.8,0.4,1.2,0.6l0,0c0.4,0.3,0.8,0.7,1.3,1l-0.1,0.1
	C192.1,328.7,190.4,328.9,189.6,327.2z"/>
<path class="st11" d="M175.4,345.4c1.5-0.1,2.7,0.3,3.4,1.7l-0.1,0.1c-0.5-0.1-1-0.2-1.5-0.3l0,0c-0.4-0.2-0.8-0.4-1.1-0.6l0,0
	c-0.3-0.3-0.5-0.6-0.8-0.9L175.4,345.4z"/>
<path class="st10" d="M312.2,329.5c-0.8,1.7-2.5,1.4-4,1.7l-0.1-0.1c0.8-0.5,1.6-1,2.4-1.5l0,0C311.2,329.5,311.7,329.5,312.2,329.5
	L312.2,329.5z"/>
<path class="st10" d="M297,335.1c-1,1.4-2.5,1.1-4,1.1l-0.1-0.1c1.3-0.4,2.6-0.8,3.9-1.2L297,335.1z"/>
<path class="st8" d="M114.2,249.3c0,0.3,0,0.6,0,1c-1.7-0.6-1.5-2-1.6-3.4l0.1-0.1C113.3,247.6,113.8,248.5,114.2,249.3L114.2,249.3
	z"/>
<path class="st13" d="M337.8,313.8c0.4-1.1,0.9-2,2.3-1.7C339.7,313.2,338.9,313.6,337.8,313.8z"/>
<path class="st13" d="M165.2,312c1.3-0.2,2.3,0,2.3,1.7C166.7,313.1,165.9,312.6,165.2,312z"/>
<path class="st7" d="M99.1,271.8c1.2,0.5,1.9,1.4,1.7,2.8l-0.2,0.2c-0.3-0.3-0.6-0.5-0.9-0.8c0,0,0,0,0,0c-0.2-0.4-0.4-0.8-0.6-1.1
	c0,0,0,0,0,0C99.1,272.6,99,272.2,99.1,271.8L99.1,271.8z"/>
<path class="st12" d="M138,287.1c1.5-0.1,1.8,0.8,1.7,2C139.2,288.5,138.6,287.8,138,287.1z"/>
<path class="st8" d="M200.3,331.8c-1.3,0-2.5,0.1-3.4-1.1c0.1-0.1,0.2-0.2,0.3-0.4c0.6,0.2,1.3,0.3,1.9,0.5c0,0,0,0,0,0
	c0.4,0.3,0.9,0.6,1.3,0.9C200.4,331.6,200.3,331.8,200.3,331.8z"/>
<path class="st11" d="M172.1,344.1c-0.7-0.5-1.4-1-2.1-1.5c1.4,0,2.5,0.4,3.1,1.7l-0.1,0.1C172.7,344.2,172.4,344.2,172.1,344.1z"/>
<path class="st10" d="M321.4,324.5c0.1,0,0.3,0,0.4,0c-0.1,1.5-1.1,1.6-2.2,1.5l-0.1-0.1c0.3-0.3,0.5-0.6,0.8-0.9l0,0
	C320.6,324.9,321,324.7,321.4,324.5L321.4,324.5z"/>
<path class="st11" d="M187.8,351c1.1,0,2.4-0.4,2.8,1.2l-0.1,0.1c-0.5-0.1-1-0.1-1.6-0.2l0,0c-0.4-0.3-0.9-0.6-1.3-0.9L187.8,351z"
	/>
<path class="st8" d="M111.5,128.7c0-1.1-0.4-2.3,1.1-2.8l0.1,0.1c-0.1,0.5-0.2,1-0.2,1.5l0,0C112.3,127.9,111.9,128.4,111.5,128.7
	L111.5,128.7z"/>
<path class="st10" d="M308.3,331.2c-0.5,1.5-1.7,1.1-2.8,1.1l-0.1-0.1c1-0.4,1.9-0.7,2.9-1.1C308.2,331.1,308.3,331.2,308.3,331.2z"
	/>
<path class="st11" d="M185,349.9c1.1,0,2.3-0.4,2.8,1.1l-0.1,0.2c-0.5-0.1-1-0.2-1.5-0.3l0,0c-0.4-0.3-0.9-0.6-1.3-0.9L185,349.9z"
	/>
<path class="st7" d="M105.4,282.5l-0.1,0l-0.1,0c-0.3-0.4-0.6-0.8-0.8-1.1l0,0c-0.1-0.3-0.2-0.6-0.2-1l0.1-0.1
	c0.5,0.4,1,0.7,1.4,1.2C105.7,281.7,105.4,282.2,105.4,282.5z"/>
<path class="st13" d="M171.9,316.6c1.4-0.3,1.8,0.7,2.3,1.6C173.5,317.7,172.7,317.2,171.9,316.6z"/>
<path class="st13" d="M151.8,301.8c1-0.1,1.8,0,2.1,1.2C153.1,302.7,152,303,151.8,301.8z"/>
<path class="st8" d="M114.5,122c-0.1,0.5-0.1,1-0.2,1.5l0,0c-0.2,0.3-0.5,0.6-0.7,0.9c-0.1-0.1-0.2-0.2-0.4-0.3
	C113.2,123.2,113.1,122.2,114.5,122z"/>
<path class="st8" d="M196.9,330.6c-1,0-1.9,0-2.2-1.1c0,0,0.1-0.1,0.1-0.1c0.5,0.1,1,0.2,1.5,0.2l0,0c0.3,0.2,0.6,0.5,1,0.7
	C197.1,330.4,197,330.5,196.9,330.6z"/>
<path class="st12" d="M123.3,106.6c0.1,1-0.3,1.8-1.2,2.2C122.5,108.1,122.9,107.3,123.3,106.6z"/>
<path class="st12" d="M128.4,274.2c1,0.1,1.5,0.6,1.1,1.7C129.1,275.3,128.7,274.8,128.4,274.2z"/>
<path class="st13" d="M333.9,316.6c0.1-1,0.7-1.4,1.7-1.1C335,315.9,334.4,316.3,333.9,316.6z"/>
<path class="st7" d="M103,278.6c1.4-0.1,1.1,0.9,1.1,1.7l-0.1,0.1c-0.3-0.3-0.6-0.5-0.9-0.8l0,0C103.1,279.3,103,279,103,278.6
	L103,278.6z"/>
<path class="st12" d="M134,282.1c1,0.1,1.3,0.8,1.2,1.7C134.8,283.2,134.4,282.6,134,282.1z"/>
<path class="st13" d="M156.6,305.3c1-0.3,1.3,0.1,1.2,1.1C157.4,306,157,305.7,156.6,305.3z"/>
<path class="st12" d="M126.2,271.3c0.9,0.2,1.3,0.8,1.2,1.7C126.9,272.4,126.5,271.9,126.2,271.3z"/>
<path class="st13" d="M341.1,311.5c-0.1-0.9,0.3-1.3,1.2-1.1C341.9,310.7,341.5,311.1,341.1,311.5z"/>
<path class="st8" d="M208.8,334.6c-0.8-0.2-1.5-0.4-2.3-0.5c0.1-0.1,0.2-0.2,0.3-0.4c0.7,0.3,1.4,0.5,2.1,0.8L208.8,334.6z"/>
<path class="st13" d="M159.5,307.6c1-0.3,1.3,0.2,1.2,1.1C160.3,308.3,159.9,307.9,159.5,307.6z"/>
<path class="st10" d="M299.3,334.6c-0.5,1-1.5,0.4-2.3,0.6l-0.1-0.1c0.7-0.2,1.4-0.5,2.1-0.7C299.1,334.4,299.2,334.5,299.3,334.6z"
	/>
<path class="st13" d="M332.7,317.7c-0.1-0.9,0.2-1.3,1.2-1C333.5,317,333.1,317.3,332.7,317.7z"/>
<path class="st12" d="M127.3,273c0.9-0.1,1.4,0.2,1,1.2C128,273.8,127.6,273.4,127.3,273z"/>
<path class="st8" d="M205.4,333.5c-0.8-0.2-1.7,0.5-2.3-0.5c0.1-0.1,0.2-0.2,0.3-0.4C204.1,332.8,204.8,333.1,205.4,333.5
	L205.4,333.5z"/>
<path class="st8" d="M243.8,341.4c0-0.2,0-0.3,0-0.5c0.6,0,1.1,0.1,1.7,0.1c-0.4,0.1-0.8,0.2-1.1,0.4
	C244.2,341.4,244,341.4,243.8,341.4z"/>
<path class="st8" d="M112.7,125.9c0.2-0.6,0.4-1.1,0.5-1.7c0.1,0.1,0.2,0.2,0.4,0.3c-0.3,0.5-0.5,1-0.8,1.5L112.7,125.9z"/>
<path class="st8" d="M108.7,236.7c-0.2-0.6-0.4-1.1-0.6-1.7l0.2-0.1c0.2,0.6,0.4,1.1,0.6,1.7L108.7,236.7z"/>
<path class="st8" d="M203.1,332.9c-0.6-0.2-1.1-0.4-1.7-0.6c0.1-0.1,0.2-0.2,0.3-0.4c0.6,0.2,1.1,0.4,1.7,0.6
	C203.3,332.7,203.2,332.8,203.1,332.9z"/>
<path class="st12" d="M130.1,276.9c0.4,0.4,0.7,0.8,1.1,1.2C130.8,277.7,130.5,277.3,130.1,276.9z"/>
<path class="st11" d="M178.8,347.1c0.6,0.2,1.2,0.4,1.7,0.5c-0.1,0.1-0.2,0.3-0.3,0.4c-0.5-0.3-1-0.5-1.5-0.8L178.8,347.1z"/>
<path class="st8" d="M111.5,244.7c-0.2-0.6-0.4-1.1-0.6-1.7c0,0,0.1-0.1,0.1-0.1c0.2,0.5,0.5,1,0.7,1.5
	C111.7,244.5,111.6,244.6,111.5,244.7z"/>
<path class="st8" d="M110.4,131.5c0.2-0.6,0.4-1.1,0.6-1.7c0,0,0.2,0.1,0.2,0.1C110.9,130.5,110.7,131.1,110.4,131.5L110.4,131.5z"
	/>
<path class="st8" d="M112.7,246.9c-0.2-0.4-0.4-0.8-0.6-1.1l0.2-0.1C112.4,246,112.6,246.4,112.7,246.9L112.7,246.9z"/>
<path class="st8" d="M194.7,329.5c-0.4-0.2-0.8-0.4-1.1-0.6l0.1-0.1c0.4,0.2,0.8,0.3,1.2,0.5L194.7,329.5z"/>
<path class="st8" d="M201.4,332.3c-0.4-0.2-0.7-0.4-1.1-0.6c0,0,0.1-0.1,0.1-0.1c0.4,0.1,0.9,0.2,1.3,0.4
	C201.6,332.1,201.5,332.2,201.4,332.3z"/>
<path class="st10" d="M305.5,332.3c-0.4,0.2-0.7,0.4-1.1,0.6c-0.1-0.1-0.2-0.2-0.3-0.4c0.4-0.1,0.9-0.2,1.3-0.4
	C305.3,332.2,305.5,332.3,305.5,332.3z"/>
<path class="st7" d="M98.5,270.7c0.2,0.4,0.4,0.8,0.6,1.1l-0.1,0.1c-0.2-0.4-0.4-0.7-0.6-1.1L98.5,270.7z"/>
<path class="st8" d="M206.5,334c-0.4-0.2-0.7-0.4-1.1-0.6l0.1-0.1c0.4,0.1,0.9,0.2,1.3,0.3C206.7,333.8,206.6,333.9,206.5,334z"/>
<path class="st12" d="M129.5,275.9c0.9,0,0.7,0.6,0.6,1.1C129.9,276.6,129.7,276.2,129.5,275.9z"/>
<path class="st12" d="M131.2,278.2c0.9,0,0.7,0.6,0.6,1.1C131.6,278.9,131.4,278.5,131.2,278.2z"/>
<path class="st12" d="M132.3,279.8c0.2,0.4,0.4,0.7,0.7,1.1C132.8,280.5,132.6,280.2,132.3,279.8z"/>
<path class="st12" d="M137.4,286.1c0.9,0,0.7,0.6,0.7,1.1C137.8,286.8,137.6,286.4,137.4,286.1z"/>
<path class="st8" d="M111,129.8c0.2-0.4,0.4-0.7,0.6-1.1c0,0,0.1,0.1,0.1,0.1c-0.2,0.4-0.3,0.8-0.5,1.2
	C111.1,130,111,129.8,111,129.8z"/>
<path class="st13" d="M155.6,304.6c0.4,0.2,0.7,0.4,1.1,0.7C156.3,305.1,156,304.9,155.6,304.6z"/>
<path class="st13" d="M157.8,306.4c0.5,0,1.1-0.2,1.1,0.6C158.6,306.8,158.2,306.6,157.8,306.4z"/>
<path class="st13" d="M161.3,309.2c0.4,0.2,0.7,0.4,1.1,0.7C162,309.6,161.6,309.4,161.3,309.2z"/>
<path class="st11" d="M173.1,344.2c0.4,0.2,0.8,0.4,1.1,0.6l-0.1,0.1C173.8,344.7,173.4,344.5,173.1,344.2
	C173.1,344.3,173.1,344.2,173.1,344.2z"/>
<path class="st11" d="M174.3,344.8c0.4,0.2,0.8,0.4,1.1,0.6c0,0-0.1,0.1-0.1,0.1c-0.4-0.2-0.8-0.4-1.1-0.6L174.3,344.8z"/>
<path class="st13" d="M162.9,310.3c0.5,0,1.1-0.2,1.1,0.6C163.6,310.8,163.3,310.5,162.9,310.3z"/>
<path class="st13" d="M340.1,312.1c0-0.8,0.6-0.7,1.1-0.7C340.8,311.7,340.4,311.9,340.1,312.1z"/>
<path class="st13" d="M167.5,313.7c0.4,0.2,0.7,0.4,1.1,0.6C168.2,314.1,167.8,313.9,167.5,313.7z"/>
<path class="st13" d="M169.2,314.8c0.4,0.2,0.7,0.4,1.1,0.6C169.9,315.3,169.5,315,169.2,314.8z"/>
<path class="st13" d="M335.6,315.5c0-0.8,0.6-0.7,1.1-0.6C336.3,315.1,335.9,315.3,335.6,315.5z"/>
<path class="st13" d="M170.8,316c0.4,0.2,0.7,0.4,1.1,0.7C171.6,316.4,171.2,316.2,170.8,316z"/>
<path class="st13" d="M331.6,318.3c0.4-0.2,0.7-0.4,1.1-0.6C332.3,317.9,331.9,318.1,331.6,318.3z"/>
<path class="st13" d="M174.2,318.2c0.4,0.2,0.8,0.4,1.1,0.6C175,318.7,174.6,318.5,174.2,318.2z"/>
<path class="st13" d="M329.9,319.4c0.4-0.2,0.7-0.4,1.1-0.6C330.6,319,330.2,319.2,329.9,319.4z"/>
<path class="st8" d="M117.5,116.3c-0.3,0.4-0.5,0.8-0.8,1.2C116.6,116.8,116.6,116.3,117.5,116.3z"/>
<path class="st8" d="M116.7,117.4c-0.2,0.4-0.4,0.8-0.6,1.1C116.3,118.2,116.5,117.8,116.7,117.4z"/>
<path class="st8" d="M116.1,118.6c-0.2,0.4-0.4,0.8-0.6,1.2C115.7,119.3,115.9,119,116.1,118.6z"/>
<path class="st8" d="M115.6,119.7c-0.2,0.4-0.4,0.8-0.6,1.2C115.2,120.5,115.4,120.1,115.6,119.7z"/>
<path class="st8" d="M115,120.8c-0.2,0.4-0.4,0.8-0.6,1.1C114.6,121.6,114.8,121.2,115,120.8z"/>
<path class="st8" d="M112.1,245.8c-0.2-0.4-0.4-0.7-0.6-1.1c0.1-0.1,0.2-0.2,0.3-0.3c0.1,0.4,0.3,0.8,0.4,1.2L112.1,245.8z"/>
<path class="st13" d="M170.2,315.4c0.2,0.2,0.4,0.4,0.6,0.5C170.7,315.8,170.5,315.6,170.2,315.4z"/>
<path class="st12" d="M135.8,284.3c0.2,0.2,0.4,0.4,0.6,0.6C136.1,284.7,136,284.5,135.8,284.3z"/>
<path class="st13" d="M155,304.1c0.2,0.2,0.4,0.4,0.6,0.6C155.4,304.5,155.2,304.3,155,304.1z"/>
<path class="st13" d="M342.9,309.8c0.1-0.2,0.1-0.3,0.2-0.5c0.1,0.1,0.2,0.2,0.2,0.4l-0.2,0.1L342.9,309.8z"/>
<path class="st13" d="M162.3,309.8c0.2,0.2,0.4,0.4,0.6,0.6C162.7,310.2,162.5,310,162.3,309.8z"/>
<path class="st13" d="M331,318.8c0.2-0.2,0.4-0.4,0.6-0.5C331.4,318.5,331.2,318.6,331,318.8z"/>
<path class="st13" d="M175.3,318.8c0.2,0.2,0.4,0.4,0.6,0.5C175.8,319.2,175.5,319,175.3,318.8z"/>
<path class="st13" d="M342.3,310.4c0.2-0.2,0.4-0.4,0.6-0.6C342.7,310,342.5,310.2,342.3,310.4z"/>
<path class="st13" d="M153.9,303c0.2,0.2,0.4,0.4,0.6,0.6C154.3,303.4,154.1,303.2,153.9,303z"/>
<path class="st13" d="M329.3,319.9c0.2-0.2,0.4-0.4,0.6-0.5C329.7,319.6,329.5,319.8,329.3,319.9z"/>
<path class="st12" d="M135.2,283.7c0.2,0.2,0.4,0.4,0.6,0.6C135.6,284.1,135.4,283.9,135.2,283.7z"/>
<path class="st13" d="M164,310.9c0.2,0.2,0.4,0.4,0.6,0.6C164.4,311.3,164.2,311.1,164,310.9z"/>
<path class="st13" d="M164.6,311.5c0.2,0.2,0.4,0.4,0.6,0.6C165,311.9,164.8,311.7,164.6,311.5z"/>
<path class="st12" d="M136.9,285.5c0.2,0.2,0.4,0.4,0.6,0.5C137.2,285.9,137.1,285.7,136.9,285.5z"/>
<path class="st12" d="M133.5,281.5c0.2,0.2,0.4,0.4,0.6,0.6C133.9,281.9,133.7,281.7,133.5,281.5z"/>
<path class="st12" d="M131.8,279.2c0.2,0.2,0.4,0.4,0.6,0.6C132.2,279.6,132,279.4,131.8,279.2z"/>
<path class="st13" d="M154.4,303.5c0.2,0.2,0.4,0.4,0.6,0.6C154.8,303.9,154.6,303.7,154.4,303.5z"/>
<path class="st13" d="M337.2,314.3c0.2-0.2,0.4-0.4,0.6-0.6C337.6,314,337.4,314.1,337.2,314.3z"/>
<path class="st13" d="M168.6,314.3c0.2,0.2,0.4,0.4,0.6,0.6C169,314.7,168.8,314.5,168.6,314.3z"/>
<path class="st13" d="M336.6,314.9c0.2-0.2,0.4-0.4,0.6-0.6C337,314.5,336.8,314.7,336.6,314.9z"/>
<path class="st8" d="M237.6,340.4c0,0.1,0,0.3,0,0.4c0,0-0.3,0-0.3,0s-0.3,0-0.3,0c0-0.2,0-0.3,0-0.5
	C237.2,340.4,237.4,340.4,237.6,340.4z"/>
<path class="st13" d="M158.9,307c0.2,0.2,0.4,0.4,0.6,0.6C159.3,307.4,159.1,307.2,158.9,307z"/>
<path class="st12" d="M136.3,284.9c0.2,0.2,0.4,0.4,0.6,0.6C136.7,285.3,136.5,285.1,136.3,284.9z"/>
<path class="st14" d="M229.7,566.7c4.7,0,9.4,0,14.2,0c1.1,0,2.2,0,3.4,0c0.4,0,0.8,0,1.1,0c0.2,0,0.4,0,0.6,0
	c5.2,0,10.5-0.1,15.7-0.1c7.8,0,15.5,0.1,23.3,0.1c0.2,0,0.4,0,0.6,0c1.3-0.1,2.6-0.3,3.9-0.4c-0.2,0.4-0.4,1.2-0.7,1.2
	c-0.8,0.2-1.7,0.1-2.5,0.1c-38.3,0-76.6,0-114.9,0c-0.7,0-1.5,0-2.2-0.1c-0.2,0-0.3-0.6-0.5-0.8c5.3,0,10.5,0,15.8,0
	c0.4,0,0.7,0,1.1,0c6,0,12-0.1,18-0.1c6.5,0,12.9,0.1,19.4,0.1C227.1,567.3,228.4,567.3,229.7,566.7z"/>
<path class="st9" d="M191.9,353.2c1.6,0.5,3.3,0.9,4.9,1.4c12.1,4.3,24.5,7.2,37.3,8.4c2.8,0.3,5.6,0.9,8.3,0.9
	c7.8,0.1,15.7,0.4,23.4-0.1c9-0.5,17.9-1.8,26.7-4.1c5.8-1.5,11.5-3.3,17.3-5c0.8-0.2,1.6-0.2,2.4-0.3c-1.5,0.6-3,1.3-4.5,1.9
	c-7.2,2.7-14.7,4.4-22.2,5.9c-4.3,0.9-8.8,1.3-13.2,1.8c-2.8,0.3-5.6,0.2-8.3,0.6c-5.1,0.9-10.3,0.5-15.4,0.4c-4.1,0-8.1-0.7-12.2-1
	c-2.1-0.2-4.2,0-6.3-0.2c-1.6-0.2-3.1-1-4.8-1.1c-2.4-0.1-4.8-0.5-7.1-1.1c-2.2-0.5-4.4-1.2-6.6-1.8c-6.1-1.7-12-3.6-18-5.5
	C192.9,354.2,192.4,353.6,191.9,353.2z"/>
<path class="st9" d="M79.9,220.9c0.5,1.5,1,3.1,1.4,4.7c1.6,5.8,3.1,11.6,4.7,17.4c0.1,0.4,0.1,0.7,0.1,1.1c-0.4-0.4-1-0.8-1.2-1.3
	c-1-3.2-2-6.3-2.8-9.5c-1-3.8-1.9-7.7-2.7-11.5C79.4,221.5,79.7,221.1,79.9,220.9z"/>
<path class="st9" d="M90.5,254.4c0.6,1.3,1.1,2.6,1.7,4c0.1,0.5,0.2,1,0.2,1.5c-0.8-0.9-1.8-1.8-2.2-2.8c-1.2-2.9-2.1-5.9-3.1-8.9
	c-0.3-0.8-0.2-1.6-0.3-2.4c0.9,2.2,1.8,4.3,2.7,6.5C89.8,252.9,90.1,253.7,90.5,254.4z"/>
<path class="st9" d="M178.7,347.2c0.5,0.3,1,0.5,1.5,0.8c1.1,0.6,2.1,1.2,3.2,1.8c-2.4-0.2-4.7-0.8-6.2-2.9
	C177.7,347,178.2,347.1,178.7,347.2z"/>
<path class="st9" d="M174.2,344.9c0.4,0.2,0.8,0.4,1.1,0.6c0.3,0.3,0.5,0.6,0.8,0.9c-1.8,0-3.4-0.3-4-2.3c0.3,0.1,0.7,0.2,1,0.2
	C173.4,344.5,173.8,344.7,174.2,344.9z"/>
<path class="st9" d="M98.4,270.8c0.2,0.4,0.4,0.7,0.6,1.1c0.1,0.3,0.1,0.7,0.2,1c-1.8-0.2-1.8-1.5-1.7-2.8
	C97.8,270.3,98.1,270.6,98.4,270.8z"/>
<path class="st9" d="M186.2,350.9c0.5,0.1,1,0.2,1.5,0.3c0.4,0.3,0.9,0.6,1.3,0.9C187.9,352.1,186.6,352.6,186.2,350.9z"/>
<path class="st9" d="M99.7,274c0.3,0.3,0.6,0.5,0.9,0.8c0.3,0.7,0.6,1.4,0.8,2.1C100.1,276.4,99.8,275.3,99.7,274z"/>
<path class="st9" d="M184.9,350c0.4,0.3,0.9,0.6,1.3,0.9c-1.1,0-2.4,0.5-2.8-1.2C183.9,349.8,184.4,349.9,184.9,350z"/>
<path class="st9" d="M189,352c0.5,0.1,1,0.1,1.6,0.2c0.4,0.3,0.9,0.6,1.3,1C190.8,353.2,189.5,353.7,189,352z"/>
<path class="st9" d="M103.1,279.7c0.3,0.3,0.6,0.5,0.9,0.8c0.1,0.3,0.2,0.6,0.2,1C103.3,281.2,102.9,280.6,103.1,279.7z"/>
<path class="st9" d="M86.1,244c0.2,0.6,0.4,1.1,0.6,1.7C85.7,245.5,86.2,244.7,86.1,244z"/>
<path class="st9" d="M92.4,259.9c0.2,0.4,0.4,0.8,0.6,1.1C92.8,260.6,92.6,260.2,92.4,259.9z"/>
<path class="st9" d="M92.9,261c0.2,0.4,0.4,0.8,0.6,1.1C93.3,261.8,93.1,261.4,92.9,261z"/>
<path class="st9" d="M93.5,262.1c0.2,0.4,0.4,0.8,0.6,1.2C93.9,262.9,93.7,262.5,93.5,262.1z"/>
<path class="st9" d="M94.1,263.3c0.2,0.4,0.4,0.8,0.6,1.1C94.5,264,94.3,263.6,94.1,263.3z"/>
<path class="st9" d="M94.6,264.4c0.2,0.4,0.4,0.8,0.6,1.1C95,265.2,94.8,264.8,94.6,264.4z"/>
<path class="st9" d="M95.2,265.5c0.2,0.4,0.4,0.8,0.6,1.2C95.6,266.3,95.4,265.9,95.2,265.5z"/>
<path class="st9" d="M95.8,266.7c0.2,0.4,0.4,0.8,0.6,1.1C96.1,267.4,96,267,95.8,266.7z"/>
<path class="st9" d="M96.3,267.8c0.2,0.4,0.4,0.8,0.6,1.1C96.7,268.6,96.5,268.2,96.3,267.8z"/>
<path class="st9" d="M96.9,268.9c0.2,0.4,0.4,0.8,0.6,1.1C97.3,269.7,97.1,269.3,96.9,268.9z"/>
<path class="st9" d="M99.1,272.9c0.2,0.4,0.4,0.8,0.6,1.1C99.5,273.6,99.3,273.3,99.1,272.9z"/>
<path class="st9" d="M101.4,276.8c0.2,0.4,0.4,0.8,0.6,1.1C101.8,277.6,101.6,277.2,101.4,276.8z"/>
<path class="st9" d="M103,278.7c0.1,0.3,0.1,0.7,0.2,1c-0.2-0.4-0.4-0.8-0.6-1.1C102.7,278.6,102.8,278.6,103,278.7z"/>
<path class="st9" d="M104.2,281.4c0.3,0.4,0.6,0.8,0.8,1.1C104.2,282.6,104.2,282,104.2,281.4z"/>
<path class="st9" d="M176,346.4c0.4,0.2,0.8,0.4,1.1,0.6C176.8,346.8,176.4,346.6,176,346.4z"/>
<path class="st9" d="M102,278c0.2,0.2,0.4,0.4,0.6,0.6C102.4,278.4,102.2,278.2,102,278z"/>
<path class="st9" d="M79.3,155.3c0,0.2-0.1,0.3-0.1,0.5c-0.1-0.1-0.2-0.2-0.3-0.3C79,155.4,79.2,155.4,79.3,155.3z"/>
<path class="st13" d="M237.6,340.4c-0.2,0-0.4,0-0.6,0c-2.4-0.4-4.9-0.7-7.3-1.1c-6.4-1.1-12.7-2.4-18.9-4.4
	c-0.6-0.2-1.3-0.3-1.9-0.4c-0.7-0.3-1.4-0.5-2.1-0.8c-0.4-0.1-0.9-0.2-1.3-0.3c-0.7-0.3-1.4-0.5-2.1-0.8c-0.6-0.2-1.1-0.4-1.7-0.6
	c-0.4-0.1-0.9-0.2-1.3-0.4c-0.4-0.3-0.9-0.6-1.3-0.9c1.3,0.2,2.6,0.3,3.8,0.7c5.7,1.6,11.3,3.5,17,5c3.7,1,7.6,1.6,11.4,2.1
	c3.8,0.5,7.6,0.6,11.3,1.2c6.3,1,12.6,0.7,18.8,0.4c4.6-0.2,9.2-0.5,13.8-1.4c3.3-0.7,6.7-1.1,10.1-1.8c5.9-1.2,11.6-3,17.3-4.8
	c2.1-0.7,4.2-1.5,6.3-2.3c0.6-0.2,1.3-0.2,1.9-0.3c-0.8,0.5-1.6,1-2.4,1.5c-1,0.4-1.9,0.7-2.9,1.1c-0.4,0.1-0.9,0.2-1.3,0.4
	c-1.7,0.6-3.4,1.2-5,1.8c-0.7,0.2-1.4,0.5-2.1,0.7c-1.3,0.4-2.6,0.8-3.9,1.2c-4.2,0.9-8.4,1.8-12.6,2.6c-5.9,1.1-11.8,1.9-17.8,2.1
	c-2.3,0.1-4.7,0.4-7,0.4c-3.4,0-6.7-0.1-10.1-0.2c-0.6,0-1.1-0.1-1.7-0.1C241.8,340.7,239.7,340.6,237.6,340.4z"/>
<path class="st12" d="M108.9,236.6c-0.2-0.6-0.4-1.1-0.6-1.7c-1-3.9-2.1-7.7-3-11.6c-1.6-6.7-3-13.5-3.4-20.4
	c-0.3-5.5-1-11-0.9-16.6c0.1-8.8,0.7-17.6,2.1-26.3c0.2-1.4,0.4-2.8,0.6-4.1c0.5-1.7,0.9-3.3,1.4-5c1.1-4.3,2.2-8.7,3.3-13
	c0.3-0.5,0.6-0.9,0.9-1.4c0.2,2.6-1,4.8-1.5,7.3c-1.4,5.8-2.9,11.6-3.9,17.5c-0.8,4.6-0.6,9.3-1.3,13.8c-0.9,5.7-0.5,11.4-0.4,17.1
	c0,4.2,0.8,8.3,1,12.5c0.1,4.1,1.1,8.1,1.8,12.1c1,5.8,2.5,11.5,4.2,17.2c0.4,1.3,0.5,2.7,0.8,4
	C109.4,237.5,109.2,237.1,108.9,236.6z"/>
<path class="st12" d="M112.3,245.6c-0.1-0.4-0.3-0.8-0.4-1.2c-0.2-0.5-0.5-1-0.7-1.5c-0.5-1.6-0.9-3.3-1.4-4.9
	c0.4,0.2,0.9,0.4,1.1,0.7c1.2,3.1,2.4,6.3,3.5,9.5c0.1,0.3,0,0.7,0,1.1c-0.5-0.8-1-1.6-1.5-2.4C112.6,246.4,112.4,246,112.3,245.6z"
	/>
<path class="st12" d="M111.1,130c0.2-0.4,0.3-0.8,0.5-1.2c0.3-0.4,0.6-0.9,1-1.3c0.5,1.6-0.5,2.9-1.1,4.2c-0.8,1.6-0.7,3.6-2.3,4.8
	c0.4-1.6,0.9-3.3,1.3-4.9C110.7,131.1,110.9,130.5,111.1,130z"/>
<path class="st12" d="M112.8,126c0.3-0.5,0.5-1,0.8-1.5c0.2-0.3,0.5-0.6,0.7-0.9c-0.2,1.5,0.1,3.2-1.7,4
	C112.6,127,112.7,126.5,112.8,126z"/>
<path class="st13" d="M194.8,329.4c-0.4-0.2-0.8-0.3-1.2-0.5c-0.4-0.3-0.8-0.7-1.3-1c1.7-0.2,2.9,0.6,4,1.7
	C195.8,329.5,195.3,329.4,194.8,329.4z"/>
<path class="st13" d="M197.2,330.3c-0.3-0.2-0.6-0.5-1-0.7c1.1,0,2.4-0.5,2.9,1.1C198.5,330.6,197.8,330.4,197.2,330.3z"/>
<path class="st13" d="M312.2,329.4c-0.5,0.1-1,0.1-1.5,0.2c0.6-1.1,1.6-1.4,2.8-1.2C313,328.8,312.6,329.1,312.2,329.4z"/>
<path class="st13" d="M320.3,325.1c-0.3,0.3-0.5,0.6-0.8,0.9c-0.5,0.1-1,0.2-1.5,0.3C318.2,324.8,319.2,324.9,320.3,325.1z"/>
<path class="st13" d="M192.3,327.9c-0.4-0.2-0.8-0.4-1.2-0.6C191.6,327.5,192,327.7,192.3,327.9z"/>
<path class="st13" d="M315.7,327.3c-0.4,0.2-0.8,0.4-1.2,0.6C315,327.7,315.4,327.5,315.7,327.3z"/>
<path class="st13" d="M314.6,327.9c-0.4,0.2-0.8,0.4-1.2,0.6C313.8,328.3,314.2,328.1,314.6,327.9z"/>
<path class="st13" d="M321.4,324.5c-0.4,0.2-0.8,0.4-1.1,0.6C320.3,324.3,320.9,324.4,321.4,324.5z"/>
<path class="st13" d="M318,326.2c-0.4,0.2-0.8,0.4-1.1,0.6C316.9,326,317.5,326.1,318,326.2z"/>
<path class="st13" d="M316.9,326.8c-0.4,0.2-0.8,0.4-1.2,0.6C315.8,326.5,316.4,326.7,316.9,326.8z"/>
<path class="st1" d="M229.7,566.7c-1.3,0.6-2.6,0.6-3.9,0C227.1,566.7,228.4,566.7,229.7,566.7z"/>
<path class="st1" d="M247.2,566.7c-1.1,0-2.2,0-3.4,0C245,566.7,246.1,566.7,247.2,566.7z"/>
<path class="st1" d="M188.4,566.7c-0.4,0-0.7,0-1.1,0C187.7,566.7,188.1,566.7,188.4,566.7z"/>
<path class="st1" d="M248.9,566.7c-0.2,0-0.4,0-0.6,0C248.6,566.7,248.7,566.7,248.9,566.7z"/>
<path class="st1" d="M288.5,566.7c-0.2,0-0.4,0-0.6,0C288.1,566.7,288.3,566.7,288.5,566.7z"/>
<path id="atlas" class="st1" d="M387.9,187c0.4,9.1-0.4,18.2-2.2,27.2c-2.8,13.8-7.4,26.8-14.3,39.1c-6.4,11.3-14.3,21.4-23.5,30.5
	c-12.8,12.6-27.3,22.6-43.9,29.5c-9.4,3.9-19,6.7-29,8.4c-8.5,1.5-17.1,2.5-25.8,2c-6-0.3-11.9-1-17.9-2c-13-2.2-25.4-6.2-37.2-12.1
	c-10.3-5.1-19.8-11.4-28.5-18.9c-8.6-7.5-16.4-15.8-22.8-25.3c-7-10.3-12.6-21.4-16.8-33.2c-2.6-7.3-4.6-14.8-6-22.4
	c-1.7-9.6-2.2-19.4-1.7-29.2c0.7-14.7,3.2-29,8.4-42.8c4.7-12.6,11.1-24.2,19.6-34.5c4.4-5.4,9.1-10.6,13.9-15.6
	c14.3-14.8,31.2-25.4,50.8-31.9c8.4-2.8,16.9-4.9,25.6-6.2c9.1-1.3,18.2-1.7,27.3-1.1c21.3,1.4,41.2,7.4,59.6,18.3
	c8.8,5.2,16.8,11.3,24.2,18.4c9.2,8.9,16.6,19.1,22.8,30.3c4.1,7.4,7.6,15.1,10.3,23.1c2.2,6.8,4.1,13.6,5.1,20.7
	c0.8,5.5,1.6,11,2.1,16.5C388.2,179.4,387.9,183.2,387.9,187z M287.6,59.5c-0.4-0.1-0.7-0.2-1.1-0.3c0,0.1-0.1,0.2-0.1,0.3
	c0.3,0.1,0.6,0.2,0.9,0.3c1.8,0.9,3.6,1.9,5.5,2.7c4.6,1.8,9.3,3.4,13.9,5.3c2.4,1,4.8,2.2,6.9,3.6c3.6,2.3,4.1,5.4,1.7,8.9
	c-0.5,0.8-1.1,1.5-1.8,2.2c-1.7,1.9-1.8,1.9-0.3,4c7.6,11.1,13.7,23,18.9,35.4c0.8,1.8,1.5,3.6,2.4,5.4c0.7,1.4,2.1,2,3.3,1.4
	c0.7-0.3,1.2-1.1,1.6-1.8c1.8-3.2,3.6-6.3,6.1-9.1c1.4-1.5,1.5-3.2,0.3-5.1c-2.7-4.4-5.1-9-7.6-13.4c-1.9-3.2-2.2-6.6-0.5-9.9
	c1.2-2.3,0.7-4.2-1.3-5.7c-3.7-2.8-7.3-5.6-11.1-8.1c-7.4-4.8-15.3-8.6-23.5-11.8C297.2,61.8,292.6,60,287.6,59.5z M279.8,151.6
	c-5.1,0.5-10.2,1.1-15.4,1.3c-5.8,0.2-11.7,0.2-17.5,0.1c-2.5,0-5.1-0.3-7.6-0.6c-1.8-0.2-3,0.6-4.1,2c-1,1.3-1.5,2.8-1.6,4.4
	c-0.2,2.8,0.8,5.3,1.6,7.9c0.7,2.2,1.2,4.3-0.6,6.3c-0.7,0.8-1,2,0,3.1c2.2,2.4,2.1,3.5-0.7,5.1c-1.2,0.7-2,1.5-2.1,3
	c-0.2,2.9-0.9,5.8-1,8.6c-0.2,4.4,0,8.9,0,13.3c0,0.7,0.1,1.5,0.2,2.3c1.1,0.2,2,0.4,2.9,0.4c13.1,0.4,26.2,0.4,39.2-0.5
	c2.2-0.1,4.4-0.5,6.6-0.8C281.7,196.5,281.5,157,279.8,151.6z M178.7,145.2c-14.4-4.3-27.8-10.3-38.2-21.7c-0.4,0.8-0.7,1.3-0.9,1.8
	c-0.3,0.5-0.6,1-0.8,1.5c-8.3,16-12.7,33.1-13.7,51.1c-0.1,2.4,0.6,3.7,2.7,4.6c6.1,2.7,12,5.6,18.2,8.1c8.6,3.5,17.4,6,26.7,8.3
	C172,180.6,172.7,162.7,178.7,145.2z M264.8,68c-0.1-4.2-1.9-7.7-4.3-10.8c-1.2-1.6-3.1-1.3-4.1,0.7c-1.3,2.6-2.5,5.3-3.6,7.9
	c-4,9.9-7,20.1-9.5,30.5c-1.6,6.8-2.9,13.7-4.2,20.6c-0.8,4.2-1.5,8.5-2,12.8c-0.4,3.6-0.6,7.3-0.7,11c0,2.5,1.4,4.4,3.8,4.9
	c2.5,0.6,5.2,0.9,7.8,1.1c9.6,0.5,19.2-0.4,28.7-1.1c0.9-0.1,1.8-0.4,2.8-0.6c-0.1-2.2-0.1-4.3-0.3-6.3c-0.4-4.3-1-8.6-1.5-12.8
	c-0.4-3.4-0.8-6.9-1.3-10.3c-0.6-3.9-1.4-7.7-2.1-11.6c-0.5-2.9-1-5.7-1.7-8.5c-1-3.8-3.7-6.7-6-9.7c-2.3-3-4.4-6.1-6.3-9.3
	c-1.5-2.5-0.8-4.6,1.6-6.4C262.8,69.3,263.7,68.8,264.8,68z M155.2,256.3c12.1,5.7,24.7,9.2,37.7,12.2c-0.4-0.8-0.6-1.3-0.9-1.7
	c-6.6-11.8-11.5-24.3-14.7-37.5c-1.7-7-3.2-14-3.7-21.3c-0.1-0.9-0.4-1.8-0.6-2.6c-16.6-4.3-32.7-9.2-47.8-17.3
	c-0.8,10,2.2,28.9,5.3,33.3c1.1-1.5,1.9-3,3.1-4.3c2.6-2.9,6.6-2.7,9,0.4c0.8,1.1,1.5,2.4,2.2,3.6c2.2,3.9,4.4,7.8,6.6,11.8
	c1.5,2.7,3.1,5.4,4.5,8.1C158.3,246,158.9,251.1,155.2,256.3z M285.8,213.4c-1.6,19.9-4.2,39.4-8.6,58.8c0.7,0,1.2,0.1,1.6,0
	c7.2-1.1,14.4-2,21.6-3.4c5.3-1,10.5-2.7,15.7-4c1.2-0.3,1.9-1,2.5-2.1c3.5-7.3,6.6-14.6,9.1-22.3c0.6-2,0.2-3.4-1-4.9
	c-1.9-2.3-4.3-3.9-7-5c-2.6-1.1-5.2-2.2-7.7-3.4c-5.6-2.7-8.1-7.3-8.2-13.3c0-1,0-2,0-3C297.7,211.8,291.9,212.6,285.8,213.4z
	 M336.1,184.9c0.2-0.9,0.4-1.5,0.4-2.1c-0.1-2.5-0.1-5.1-0.5-7.6c-0.6-4.6-3.3-6.9-8-6.9c-2.3,0-4.5,0.1-6.8,0
	c-5.4-0.1-10.7-4.1-12-9.3c-0.9-3.5-0.7-7.1,0.6-10.5c0.2-0.5,0.2-0.9,0.4-1.5c-8.1,1.4-15.9,2.7-23.9,4c1.1,18.6,1.1,37.2,0.1,55.9
	c2.5-0.3,4.7-0.4,6.8-0.8c3.4-0.6,6.8-1.3,10.2-2c1.3-0.3,2-1.1,2.4-2.4c0.6-2,1.4-3.9,2.2-5.8c1.6-3.6,3.9-6.6,7.3-8.7
	c5.2-3.3,10.9-3.7,16.8-2.9C333.2,184.5,334.6,184.7,336.1,184.9z M233.2,314.8c-0.4-0.3-0.8-0.6-1.3-0.9
	c-6.2-3.3-11.5-7.9-16.4-12.7c-6.6-6.6-12.3-14-16.7-22.2c-1.2-2.3-2.8-3.3-5.3-3.9c-14.4-3.4-28.7-6.8-42-13.8
	c-0.9-0.5-1.9-1.3-3.1-0.6c1.7,6.1,18.9,24,31.4,32.6C195.9,304.5,213.5,312.3,233.2,314.8z M328.9,128.5c-1.6,1-2.8,1.9-4.1,2.6
	c-2,1.1-4,2.1-6,2.9c-2.1,0.9-3.9,0.1-5.3-1.5c-1.3-1.6-1.7-3.4-0.8-5.2c0.7-1.2,1.4-2.5,2.4-3.4c2.5-2.2,5.2-4.3,7.8-6.3
	c-0.4-4.3-11.1-22.8-14.3-25c-1.7,7.9-2.5,9.9-6.5,15.2c-3.8,5.1-8.4,8.6-15.3,7.5c-1.4-0.2-2.9,0-4.3,0c1.1,9.9,2.2,19.6,3.3,29.5
	c15.6-2.2,30.7-5.4,45.9-10.1C330.8,132.5,329.9,130.6,328.9,128.5z M342.2,175.2c0.2,3.1,0.4,6.4,0.5,9.7c0,1.3,0.7,2,1.7,2.7
	c1.6,1.1,3.4,2.1,4.8,3.5c3.4,3.5,7.3,3.4,11.4,2c1.6-0.5,3.1-1.5,4.4-2.5c3.2-2.4,7-3.6,10.8-4.5c1.3-0.3,2.6-0.4,3.8-0.8
	c0.6-0.2,1.5-0.9,1.5-1.4c0.1-1.9,0.5-4-0.2-5.5c-1.2-2.7-1.7-5.5-2.4-8.3c-0.3-1-0.6-2-1.1-2.9c-0.8-1.5-2.1-2.5-3.7-2.8
	c-2.6-0.4-4.8-1.5-7-2.8c-1.8-1.1-3.7-1.6-5.9-0.8c-3.5,1.2-7.1,2.2-10.7,3.2c-1.5,0.5-3,0.9-4.5,1.4c-2.3,0.8-3.2,2.5-3.3,4.7
	C342.2,171.8,342.2,173.4,342.2,175.2z M242.4,273.7c1.6,0,3.1,0,4.6,0c4.7-0.1,9.4-0.1,14.1-0.2c2.6-0.1,5.3-0.4,7.9-0.5
	c1.2-0.1,2-0.4,2.1-1.8c0-0.5,0.3-1.1,0.5-1.6c1.2-6,2.4-11.9,3.4-17.9c0.9-5,1.6-10,2.2-15c0.6-4.2,1.1-8.4,1.5-12.6
	c0.3-3.2,0.5-6.5,0.7-9.9c-1.4,0-2.6-0.1-3.8,0c-6.5,0.4-12.9,0.7-19.4,1.1c-0.1,0-0.1,0.2-0.3,0.4c1.5,0.5,3,0.8,4.4,1.4
	c8.2,3.2,10.4,6.9,9.4,14.2c-1.4,9.4-5.9,17.3-13.6,23.1c-3.5,2.7-7,5.4-10.2,8.4C242.8,265.5,241.6,269.1,242.4,273.7z
	 M262.8,316.7c1.7-0.3,2.9-0.5,4-0.8c4.2-1.2,7.9-3.4,11.5-5.8c11.7-7.9,21.3-17.9,29.4-29.3c1.9-2.7,3.8-5.5,6.1-8.9
	c-13,3.4-25.4,5.7-38.1,6.7C272.5,291.7,269,304.4,262.8,316.7z M144.2,117.1c5.1,9,27.7,21.7,36.8,21c1.6-3.5,3.1-7.1,4.7-10.7
	c0.6-1.4,0.2-2.1-0.9-2.8c-1.1-0.7-2.3-1.3-3.4-2c-2.7-1.7-3.5-3.6-3-6.7c0.1-0.9,0.2-1.8,0.4-2.7c-2.1-1-4-1.9-5.9-2.7
	c-4.4-1.9-8.8-3.6-12.6-6.7c-1.9-1.5-3.4-1.4-5.3,0.1c-0.6,0.5-1.1,1-1.6,1.6C150.3,109.5,147.3,113.3,144.2,117.1z M179.3,207.4
	c0.4,2.5,0.8,4.8,1.2,7.1c1.7,11.6,5,22.8,9.3,33.7c0.6,1.5,1,3.2,2.7,4.5c-0.3-5.1,0.3-9.9,1.7-14.5c1.7-5.9,4.9-10.5,11.2-12.3
	c3-0.8,5.9-1.7,8.8-2.7c3-1,5.9-2.4,8.3-4.7c1.2-1.2,1.9-2.5,1.6-4C209.1,212.1,194.4,209.8,179.3,207.4z M284.8,312.9
	c20.6-5.5,38.9-15,54.2-30.2c-2.2-3.2-2.9-6.5-3-10.1c-0.1-2.5-0.3-4.9-0.5-7.4c-3.5,1.1-6.7,2.3-9.9,3.2c-2.3,0.6-3.7,1.9-4.8,3.9
	c-6.5,11.3-14.4,21.6-23.8,30.6C293,306.5,289.2,310,284.8,312.9z M243,280c2.7,12.9,6.4,25,12.2,36.6c3.6-3.5,11.3-24.4,13.9-37.2
	C260.6,279.6,252.1,279.8,243,280z M224.6,203.1c-2.2-0.3-4.1-0.3-5.9-0.7c-4.6-1-8.6-3.3-12.2-6.2c-3.1-2.5-6-5.1-9-7.7
	c-1.2-1-2.2-1.7-4-1.1c-1.3,0.4-3.1,0.4-4.4-0.1c-3-1.1-5.8-2.7-7.5-5.6c-0.9-1.4-1.8-2.7-2.7-4.2c-0.9,7.2-0.9,17.6,0.2,23
	c14.9,3.6,30.1,5.7,45.5,7.5C224.6,206.1,224.6,204.7,224.6,203.1z M224.8,136.6c3.6,0,5.3-1.3,5.9-4.5c0.5-2.7,0.8-5.5,1.2-8.3
	c0.2-1.5,0.4-3.1,0.7-4.8c-4.1-0.9-6.2-4.1-8.7-6.6c-0.7-0.7-1.4-1.5-2.2-2.1c-1.5-1.1-3-1-4.4,0.2c-0.7,0.6-1.3,1.4-1.7,2.2
	c-2,4.2-2.1,10.9,2.6,14.6c2.5,1.9,4.2,4.5,5.4,7.4C223.9,135.3,224.4,135.9,224.8,136.6z M224.6,189.8c0.2-0.7,0.4-1.3,0.5-2
	c0.7-4,1.1-8,2.1-11.9c0.7-3.1-0.2-5.3-2.4-7.3c-1.5-1.3-3.4-1.6-4.9-0.3c-2.8,2.7-5.6,5.6-8,8.6c-1.5,1.8-1,4.2,0.7,5.9
	c0.7,0.7,1.6,1.4,2.5,1.9C218.1,186.5,221.2,188.1,224.6,189.8z M247.9,316.4c-0.4-1.1-0.7-1.8-1-2.6c-2.7-6.9-5.4-13.9-7.1-21.2
	c-0.9-3.9-1.9-7.8-2.8-11.7c-0.5-2.1-0.8-2.3-3.2-2c-0.1,0.4-0.2,0.8-0.2,1.3c-0.2,9.4,1.3,18.4,5.1,27.1c1.2,2.8,2.9,5.2,5.1,7.3
	C244.8,315.7,245.9,316.5,247.9,316.4z M249.3,57.3c-7.5,2.8-14.1,6.6-20.1,11.7c4.3,2.7,8.4,5.2,12.7,7.8
	C244.4,70.3,246.8,64,249.3,57.3z M214.2,61.8c2.7,1.3,5.2,2.3,7.6,3.5c2,1,2.1,1.1,3.6-0.6c2.6-2.7,5.8-4.7,9.1-6.6
	c0.8-0.5,1.7-1,2.5-1.5C229.1,57.1,221.7,59.2,214.2,61.8z M331.9,248.7c-2.6,4.5-4.2,8.9-6.3,13.7c3.4-1.3,6.1-2.4,8.9-3.5
	C334.2,255.3,334,252.1,331.9,248.7z M271.9,65.5c1.6-0.8,3.2-1.4,4.5-2.4c1.8-1.4,1.7-3.2-0.2-4.3c-2.6-1.5-5.4-2-8.5-2.3
	C269.1,59.4,270.4,62.2,271.9,65.5z"/>
</svg>
